<svg enable-background="new 0 0 360 54" viewBox="0 0 360 54" xmlns="http://www.w3.org/2000/svg"><g fill="#003888"><path d="m0 18.88h3.388v23.893h-3.388z"/><path d="m28.496 18.88h3.219v23.893h-2.915l-15.829-18.402v18.401h-3.187v-23.892h2.747l15.965 18.558z"/><path d="m52.821 18.88h3.377l-10.01 23.996h-.77l-10.203-23.996h3.412l7.12 16.779z"/><path d="m59.83 18.88h13.424v3.045h-10.034v7.285h9.694v3.061h-9.694v7.424h10.356v3.045h-13.746z"/><path d="m84.091 32.762-2.576-1.581c-1.616-.994-2.764-1.973-3.449-2.936-.683-.965-1.025-2.072-1.025-3.328 0-1.882.648-3.408 1.942-4.585 1.294-1.173 2.974-1.759 5.041-1.759 1.977 0 3.791.559 5.44 1.68v3.883c-1.706-1.656-3.542-2.484-5.509-2.484-1.107 0-2.016.258-2.729.773-.711.519-1.066 1.181-1.066 1.985 0 .717.261 1.387.785 2.011s1.368 1.282 2.531 1.967l2.587 1.545c2.888 1.743 4.333 3.958 4.333 6.649 0 1.916-.636 3.471-1.906 4.668-1.272 1.199-2.923 1.797-4.957 1.797-2.34 0-4.47-.725-6.39-2.177v-4.343c1.83 2.34 3.948 3.511 6.355 3.511 1.062 0 1.948-.299 2.652-.895.707-.596 1.06-1.343 1.06-2.241 0-1.456-1.04-2.837-3.119-4.14z"/><path d="m93.149 18.846h19.779v3.043h-8.253v20.884h-3.408v-20.884h-8.118z"/><path d="m126.535 18.537c3.659 0 6.704 1.169 9.139 3.507 2.432 2.338 3.649 5.268 3.649 8.791 0 3.525-1.229 6.441-3.685 8.749s-5.552 3.463-9.29 3.463c-3.567 0-6.539-1.155-8.917-3.463-2.377-2.308-3.565-5.203-3.565-8.68 0-3.57 1.198-6.522 3.591-8.86s5.42-3.507 9.078-3.507zm.135 3.249c-2.709 0-4.935.856-6.679 2.568-1.745 1.708-2.617 3.893-2.617 6.55 0 2.575.875 4.719 2.625 6.431 1.749 1.71 3.94 2.564 6.571 2.564 2.641 0 4.845-.872 6.612-2.615 1.765-1.743 2.648-3.917 2.648-6.518 0-2.53-.883-4.66-2.648-6.387-1.767-1.729-3.938-2.593-6.512-2.593z"/><path d="m144.633 42.773v-23.893h5.933c2.395 0 4.295.598 5.703 1.797 1.406 1.197 2.11 2.815 2.11 4.856 0 1.393-.345 2.593-1.035 3.608-.689 1.016-1.679 1.775-2.966 2.276.758.501 1.498 1.187 2.22 2.05.723.868 1.739 2.377 3.051 4.533.824 1.359 1.486 2.377 1.983 3.063l1.254 1.71h-4.034l-1.033-1.575c-.033-.056-.1-.155-.202-.289l-.66-.943-1.05-1.743-1.135-1.866c-.699-.983-1.341-1.763-1.922-2.342-.583-.582-1.109-.999-1.578-1.256-.469-.255-1.258-.384-2.368-.384h-.882v10.399h-3.389zm4.408-20.987h-1.017v7.544h1.288c1.718 0 2.896-.149 3.534-.446.638-.295 1.135-.743 1.492-1.341.355-.6.534-1.28.534-2.045 0-.753-.198-1.434-.595-2.045-.395-.61-.952-1.04-1.669-1.292-.719-.248-1.907-.375-3.567-.375z"/></g><path d="m250.985 18.88h3.377l-10.01 23.996h-.77l-10.203-23.996h3.412l7.12 16.779z" fill="#7ab2dd"/><path d="m257.993 18.88h13.424v3.045h-10.034v7.285h9.694v3.061h-9.694v7.424h10.356v3.045h-13.746z" fill="#7ab2dd"/><path d="m276.492 42.773v-23.893h5.933c2.395 0 4.295.598 5.703 1.797 1.406 1.197 2.11 2.815 2.11 4.856 0 1.393-.345 2.593-1.035 3.608-.689 1.016-1.679 1.775-2.966 2.276.758.501 1.498 1.187 2.22 2.05.722.868 1.739 2.377 3.051 4.533.824 1.359 1.486 2.377 1.983 3.063l1.254 1.71h-4.034l-1.033-1.575c-.033-.056-.1-.155-.202-.289l-.66-.943-1.05-1.743-1.135-1.866c-.699-.983-1.341-1.763-1.922-2.342-.583-.582-1.109-.999-1.578-1.256-.469-.255-1.258-.384-2.368-.384h-.881v10.399h-3.39zm4.407-20.987h-1.017v7.544h1.288c1.718 0 2.896-.149 3.534-.446.638-.295 1.135-.743 1.492-1.341.355-.6.534-1.28.534-2.045 0-.753-.198-1.434-.595-2.045-.395-.61-.952-1.04-1.669-1.292-.718-.248-1.906-.375-3.567-.375z" fill="#7ab2dd"/><path d="m298.395 18.88h3.39v20.78h10.66v3.112h-14.05z" fill="#7ab2dd"/><path d="m324.013 18.743h2.383l10.615 24.03h-3.469l-3.155-7.081h-10.103l-2.959 7.081h-3.483zm4.981 13.904-3.82-8.654-3.542 8.654z" fill="#7ab2dd"/><path d="m352.051 31.007h7.949v10.123c-2.915 1.278-5.807 1.916-8.677 1.916-3.92 0-7.054-1.155-9.398-3.463s-3.516-5.157-3.516-8.543c0-3.568 1.213-6.54 3.644-8.911 2.428-2.372 5.473-3.556 9.135-3.556 1.333 0 2.599.145 3.797.436 1.198.289 2.711.824 4.541 1.599v3.489c-2.823-1.652-5.627-2.481-8.404-2.481-2.589 0-4.769.89-6.543 2.669-1.773 1.777-2.66 3.962-2.66 6.55 0 2.714.887 4.931 2.66 6.655 1.775 1.72 4.056 2.581 6.848 2.581 1.357 0 2.976-.313 4.865-.941l.322-.103v-4.977h-4.56v-3.043z" fill="#7ab2dd"/><path d="m194.761 17.586 2.756 4.059 2.762-4.052-2.76-4.057zm2.911-17.586c-14.777.004-26.75 12.09-26.752 27.004 0 6.407 2.222 12.287 5.921 16.915.972 1.216 2.056 2.338 3.222 3.372l.485-.713h.002l13.95-20.501 2.124-3.118-2.755-4.057-.636.931-1.828 2.681-12.217 17.96c-.002-.002-.002-.002-.002-.002-2.717-3.79-4.341-8.43-4.348-13.466.024-12.729 10.222-23.021 22.834-23.045 6.294.014 11.95 2.614 16.073 6.77l2.256-3.315c-4.788-4.574-11.214-7.414-18.329-7.416z" fill="#7ab2dd"/><path d="m192.977 17.594-2.76-4.057-2.758 4.05 2.754 4.059zm27.06-5.386c-.876-1.342-1.867-2.593-2.96-3.756l-2.285 3.358-12.875 18.923-4.4-6.467-2.735 4.085 6.204 9.117-.01.01.338.474.579.915.66-.959 1.826-2.686 13.22-19.43c1.838 3.319 2.9 7.134 2.904 11.212-.02 12.723-10.218 23.013-22.83 23.037-5.399-.008-10.328-1.93-14.231-5.092l-2.23 3.273c4.541 3.598 10.24 5.777 16.461 5.777 14.773-.002 26.752-12.089 26.752-26.996 0-5.463-1.622-10.544-4.388-14.795z" fill="#003888"/></svg>